<svg width="31" height="31" viewBox="0 0 31 31" fill="none" xmlns="http://www.w3.org/2000/svg">
<circle cx="15.2227" cy="15.019" r="15" fill="white"/>
<path d="M18.8425 8H11.6142C9.62656 8 8 9.62585 8 11.6142V18.8425C8 20.8302 9.62656 22.4567 11.6142 22.4567H18.8425C20.8302 22.4567 22.4567 20.8302 22.4567 18.8425V11.6142C22.4567 9.62585 20.8302 8 18.8425 8ZM15.2284 18.2401C13.5647 18.2401 12.2165 16.8912 12.2165 15.2284C12.2165 13.5647 13.5647 12.2165 15.2284 12.2165C16.8912 12.2165 18.2402 13.5647 18.2402 15.2284C18.2402 16.8912 16.8912 18.2401 15.2284 18.2401ZM19.1438 12.2165C18.6443 12.2165 18.2402 11.8119 18.2402 11.3129C18.2402 10.814 18.6443 10.4094 19.1438 10.4094C19.6433 10.4094 20.0473 10.814 20.0473 11.3129C20.0473 11.8119 19.6433 12.2165 19.1438 12.2165Z" fill="black"/>
</svg>
