<svg width="31" height="31" viewBox="0 0 31 31" fill="none" xmlns="http://www.w3.org/2000/svg">
<circle cx="15.1172" cy="15.8296" r="15" fill="#713FAF"/>
<path d="M16.8339 8.15283H13.3943C10.0837 8.15283 7.375 10.8615 7.375 14.1721V16.7518C7.375 19.0735 8.72934 21.2017 10.8146 22.1906V25.0713C10.8146 25.3292 11.137 25.4582 11.309 25.2648L13.8027 22.7711H16.8339C20.1445 22.7711 22.8531 20.0624 22.8531 16.7518V14.1721C22.8531 10.8615 20.1445 8.15283 16.8339 8.15283ZM19.0911 19.439L18.2097 20.2989C17.2853 21.2017 14.8991 20.1699 12.7923 18.0201C10.6856 15.8704 9.76121 13.4627 10.6426 12.5598L11.5025 11.6999C11.825 11.3774 12.3624 11.3989 12.7279 11.7214L13.9747 13.0112C14.4261 13.4627 14.2327 14.2366 13.6522 14.4086C13.2438 14.5376 12.9643 14.989 13.0933 15.3975C13.3083 16.3433 14.5121 17.5472 15.415 17.7837C15.8235 17.8697 16.2749 17.6547 16.4254 17.2462C16.6189 16.6658 17.3928 16.4938 17.8227 16.9453L19.0696 18.2351C19.4135 18.5361 19.4135 19.0735 19.0911 19.439ZM15.888 12.2373C15.802 12.2373 15.716 12.2373 15.63 12.2588C15.4795 12.2803 15.329 12.1513 15.3075 12.0009C15.286 11.8504 15.415 11.6999 15.5655 11.6784C15.673 11.6569 15.7805 11.6569 15.888 11.6569C17.4573 11.6569 18.7471 12.9467 18.7471 14.5161C18.7471 14.6235 18.7471 14.731 18.7256 14.8385C18.7041 14.989 18.5536 15.118 18.4032 15.0965C18.2527 15.075 18.1237 14.9245 18.1452 14.774C18.1452 14.688 18.1667 14.602 18.1667 14.5161C18.1882 13.2692 17.1563 12.2373 15.888 12.2373ZM17.6078 14.5376C17.6078 14.688 17.4788 14.817 17.3283 14.817C17.1778 14.817 17.0488 14.688 17.0488 14.5376C17.0488 13.9141 16.5329 13.3982 15.9095 13.3982C15.759 13.3982 15.63 13.2692 15.63 13.1187C15.63 12.9682 15.759 12.8393 15.9095 12.8393C16.8339 12.8178 17.6078 13.5917 17.6078 14.5376ZM19.8005 15.4619C19.7575 15.6124 19.607 15.7199 19.435 15.6769C19.2846 15.6339 19.1986 15.4834 19.2416 15.333C19.3061 15.075 19.3275 14.817 19.3275 14.5376C19.3275 12.6458 17.7797 11.098 15.888 11.098H15.63C15.4795 11.098 15.329 10.9905 15.329 10.84C15.329 10.6895 15.4365 10.539 15.587 10.539C15.6945 10.539 15.802 10.5175 15.888 10.5175C18.1022 10.5175 19.908 12.3233 19.908 14.5376C19.908 14.8385 19.865 15.161 19.8005 15.4619Z" fill="white"/>
</svg>
