<svg width="31" height="31" viewBox="0 0 31 31" fill="none" xmlns="http://www.w3.org/2000/svg">
<circle cx="15.1172" cy="15.8296" r="15" fill="#4CAF50"/>
<g clip-path="url(#clip0_1_418)">
<path fill-rule="evenodd" clip-rule="evenodd" d="M15.1117 7.72363H15.1158C19.5852 7.72363 23.2197 11.3602 23.2197 15.8296C23.2197 20.299 19.5852 23.9355 15.1158 23.9355C13.4672 23.9355 11.9382 23.4451 10.6565 22.596L7.54078 23.592L8.55098 20.5806C7.57928 19.2462 7.00781 17.6027 7.00781 15.8296C7.00781 11.3591 10.6423 7.72363 15.1117 7.72363ZM18.2414 20.3142C18.8605 20.1804 19.6366 19.7224 19.8322 19.1702C20.0278 18.617 20.0278 18.1458 19.971 18.0455C19.9252 17.9659 19.8169 17.9138 19.6551 17.8359C19.613 17.8156 19.5673 17.7936 19.5181 17.7689C19.28 17.6503 18.1218 17.0779 17.903 17.0019C17.6882 16.9208 17.4835 16.9492 17.3214 17.1782C17.2906 17.2213 17.2598 17.2646 17.2292 17.3076C17.0336 17.5827 16.8449 17.848 16.6881 18.0171C16.5452 18.1691 16.3122 18.1884 16.1166 18.1073C16.0953 18.0984 16.0709 18.0886 16.0435 18.0775C15.7339 17.9525 15.0471 17.6751 14.2158 16.935C13.5146 16.3108 13.0384 15.5337 12.9006 15.3006C12.7653 15.0669 12.882 14.9298 12.9899 14.8031C12.9919 14.8007 12.9939 14.7984 12.9959 14.796C13.0654 14.71 13.1329 14.6384 13.2007 14.5664C13.2495 14.5146 13.2984 14.4626 13.3485 14.4049C13.3559 14.3964 13.3631 14.3881 13.3702 14.38C13.4764 14.2578 13.5396 14.1851 13.6109 14.0331C13.692 13.876 13.6342 13.7139 13.5764 13.5943C13.5367 13.5106 13.2913 12.9151 13.0805 12.4038C12.9904 12.185 12.9065 11.9816 12.8479 11.8404C12.6909 11.4645 12.5713 11.4503 12.3332 11.4402C12.3259 11.4398 12.3185 11.4395 12.3111 11.4391C12.2358 11.4353 12.1529 11.4311 12.0617 11.4311C11.7516 11.4311 11.4284 11.5223 11.2328 11.7219C11.226 11.7289 11.2189 11.7361 11.2115 11.7436C10.9613 11.9981 10.404 12.5648 10.404 13.6947C10.404 14.8267 11.2072 15.9222 11.3558 16.1249C11.3599 16.1305 11.3635 16.1354 11.3666 16.1396C11.3755 16.1513 11.3924 16.1758 11.4169 16.2113C11.7203 16.6507 13.1983 18.7911 15.4023 19.7042C17.2646 20.4763 17.8179 20.4043 18.2414 20.3142Z" fill="#FAFAFA"/>
</g>
<defs>
<clipPath id="clip0_1_418">
<rect width="16.2118" height="16.2118" fill="white" transform="translate(7.00781 7.72363)"/>
</clipPath>
</defs>
</svg>
