<svg width="31" height="31" viewBox="0 0 31 31" fill="none" xmlns="http://www.w3.org/2000/svg">
<circle cx="15.2227" cy="15.019" r="15" fill="white"/>
<path d="M7.04703 19.6868C7.39619 20.9252 8.46432 21.1518 8.53557 21.1953C10.2935 21.6741 20.1468 21.6756 21.931 21.1953C23.1531 20.8419 23.3775 19.7581 23.4196 19.6868C23.8849 17.2114 23.9155 13.9842 23.3982 11.1753L23.4196 11.3149C23.0704 10.0765 22.0023 9.8499 21.931 9.80644C20.1966 9.33543 10.3177 9.31762 8.53557 9.80644C7.31353 10.1606 7.08907 11.2437 7.04703 11.3149C6.54895 13.9165 6.52401 16.9014 7.04703 19.6868ZM13.5214 18.1028V12.9061L17.9863 15.5084L13.5214 18.1028Z" fill="#E53935"/>
</svg>
