<svg width="100" height="100" viewBox="0 0 100 100" fill="none" xmlns="http://www.w3.org/2000/svg">
<circle cx="49.9023" cy="49.9023" r="48.7305" fill="white"/>
<path fill-rule="evenodd" clip-rule="evenodd" d="M26.3128 23.5643C26.3128 23.5643 26.3128 23.5642 26.3128 23.5642H26.3164C26.3152 23.5643 26.314 23.5643 26.3128 23.5643ZM25.1097 28.8795C25.5065 27.125 25.9064 25.3565 26.3128 23.5643C25.9938 23.569 25.6711 23.5298 25.3582 23.4918C24.3465 23.3689 23.437 23.2583 23.0869 24.6862C22.3341 27.7401 21.6208 30.8048 20.9147 33.873C19.5132 39.9486 18.1261 46.0278 16.7425 52.107C16.3567 53.799 15.9851 55.4928 15.6115 57.1959C15.454 57.9137 15.2961 58.6331 15.1367 59.3547C18.305 59.5436 18.3054 59.5412 18.7845 56.578L18.7928 56.5266C18.8867 55.9431 19.0405 55.3693 19.1943 54.7958C19.2871 54.4498 19.3799 54.1038 19.4595 53.7559C20.8072 47.838 22.1513 41.9237 23.4955 36.0058C24.0332 33.6398 24.5685 31.2727 25.1097 28.8795ZM56.282 48.9276C57.339 44.5491 56.6983 43.2222 52.5913 41.4704C52.7751 41.4109 52.9492 41.3518 53.117 41.2948C53.4936 41.1668 53.8387 41.0495 54.1923 40.963C56.4576 40.4038 58.0957 39.0023 58.7839 36.8516C59.6155 34.2565 60.275 31.5754 60.6764 28.8835C61.0564 26.3349 59.8628 24.7685 57.343 24.1771C55.6726 23.7828 53.9342 23.5319 52.2209 23.5068C49.5362 23.4656 46.8515 23.4701 44.1668 23.4746C41.4821 23.479 38.7974 23.4835 36.1127 23.4423C34.8188 23.4244 34.403 23.8438 34.1306 25.0661C32.6855 31.5749 31.205 38.076 29.7244 44.5775C28.9464 47.9937 28.1684 51.41 27.3956 54.8275C27.1624 55.853 26.9713 56.8873 26.7781 57.9328L26.7781 57.9329L26.7781 57.933L26.7781 57.9331C26.6951 58.3821 26.6118 58.8332 26.5245 59.2866C28.6246 59.2866 30.6997 59.3008 32.7569 59.3148C37.6345 59.3482 42.4114 59.3809 47.1813 59.222C50.8481 59.1002 53.8518 57.3689 55.1099 53.5981C55.47 52.5152 55.7209 51.3959 55.9716 50.2779C56.0727 49.8267 56.1738 49.3758 56.282 48.9276ZM37.1975 37.0245H37.1968H37.196C36.3059 37.0241 35.4116 37.0237 34.5122 37.0237C34.6035 36.622 34.685 36.236 34.7638 35.8629C34.9656 34.9071 35.1496 34.0356 35.4353 33.1991C35.5536 32.8478 36.2274 32.4822 36.654 32.4751C40.8334 32.4177 45.0127 32.407 49.1885 32.4858C49.5326 32.493 50.1599 33.2493 50.1384 33.6328C50.0882 34.5648 49.7943 35.5039 49.4753 36.3928C49.3713 36.676 48.8767 36.9986 48.5613 36.9986C44.7998 37.0277 41.0384 37.0261 37.1983 37.0245H37.1983H37.1983H37.1982H37.1975ZM34.5443 50.582C33.524 50.581 32.4892 50.58 31.4359 50.58C31.5207 50.1627 31.5965 49.7659 31.6692 49.3847L31.6692 49.3846L31.6693 49.3845L31.6693 49.3845L31.6693 49.3844C31.8543 48.4151 32.0199 47.5473 32.2667 46.7016C32.3671 46.3611 32.9226 45.931 33.2739 45.9274C36.9254 45.8845 40.5768 45.8872 44.3504 45.8901H44.3507C45.3037 45.8908 46.2645 45.8916 47.235 45.8916C47.1413 46.3203 47.059 46.7283 46.98 47.1201L46.98 47.1201C46.7901 48.0615 46.619 48.9094 46.3533 49.7269C46.2314 50.0961 45.6077 50.5406 45.2099 50.5441C41.7171 50.589 38.2265 50.5856 34.5473 50.582L34.5443 50.582ZM75.913 78.5387H66.2137C68.2998 69.5131 70.3572 60.613 72.4863 51.4189C72.0349 51.4189 71.5966 51.4033 71.1699 51.3881C70.1496 51.3518 69.1952 51.3179 68.2854 51.5049C67.7549 51.6125 67.1958 52.6233 67.0309 53.3115C65.486 59.7348 63.9913 66.1688 62.5755 72.6244C62.3461 73.6639 62.0056 74.0044 60.9626 73.9793C59.0703 73.9337 57.1763 73.9418 55.1489 73.9505H55.1483H55.1478H55.1472C54.3063 73.9541 53.4426 73.9578 52.5465 73.9578C52.6933 73.3013 52.8369 72.6573 52.9785 72.0225L52.9868 71.9851L52.9887 71.9765C53.3583 70.3193 53.7139 68.7243 54.077 67.133C54.4871 65.3322 54.9039 63.5329 55.3207 61.7335C56.3939 57.1005 57.467 52.4679 58.4248 47.813C58.6426 46.7579 58.5239 45.6327 58.3973 44.4327V44.4327C58.3363 43.8552 58.2736 43.2604 58.2456 42.6478C58.5033 42.6478 58.7795 42.6475 59.0683 42.6471H59.0684H59.0686H59.0687C59.6876 42.6463 60.3645 42.6454 61.0414 42.6478C62.5621 42.6568 64.0831 42.6619 65.6042 42.667C69.5149 42.6802 73.4263 42.6933 77.336 42.7733C80.759 42.845 82.5871 44.1855 82.8165 46.7484C82.924 47.9707 82.7591 49.2647 82.4795 50.4726C80.8042 57.7436 79.0963 65.0036 77.3778 72.3087L77.3777 72.3089L77.3777 72.3091L77.3772 72.3109L77.3721 72.3328C76.8864 74.3974 76.3998 76.4656 75.913 78.5387ZM48.9698 67.5805C49.4965 65.2988 50.018 63.0393 50.5347 60.7993V60.7957C49.6596 60.7957 48.8185 60.8051 48.0012 60.8143H48.0012H48.0011C46.1505 60.835 44.4223 60.8544 42.6993 60.7599C41.158 60.6774 40.5415 61.3334 40.2691 62.7062C39.9557 64.294 39.596 65.8719 39.2361 67.4502L39.236 67.4509L39.2358 67.4517C39.1595 67.7863 39.0832 68.1209 39.0074 68.4556C38.4451 70.9393 37.8749 73.4211 37.3041 75.9052L37.3039 75.9063C37.107 76.7631 36.9101 77.6201 36.7134 78.4777H46.4557C47.3068 74.7845 48.1446 71.1553 48.9698 67.5805ZM31.9421 23.797C30.5377 30.0019 29.1585 36.0815 27.7792 42.161L27.777 42.1708C27.4682 43.5329 27.1577 44.8944 26.8472 46.2559L26.8469 46.2573L26.8469 46.2574C26.0333 49.8253 25.2198 53.3925 24.4364 56.9673L24.4104 57.0858C23.8564 59.6163 23.8561 59.6179 20.8484 59.2685C21.0278 58.4769 21.206 57.6861 21.384 56.896L21.3841 56.8956C21.7649 55.2064 22.1448 53.5205 22.5331 51.8379C24.3752 43.8387 26.2244 35.8394 28.0737 27.8402L28.0745 27.8366C28.1509 27.5091 28.243 27.185 28.335 26.861C28.4544 26.4404 28.5737 26.02 28.6588 25.5928C29.1104 23.3167 29.4258 23.116 31.9385 23.797H31.9421Z" fill="black"/>
</svg>
